# xmcd
#
# Track frame offsets: 
#        150
#        20922
#        37119
#        49791
#        62085
#        84504
#        105951
#        121998
#        139544
#        155543
#        175442
#        188939
#        201761
#
# Disc length: 2917 seconds
#
# Revision: 0
# Processed by: cddbd v1.5.2PL0 Copyright (c) Steve Scherf et al.
# Submitted via: ExactAudioCopyFreeDBPlugin 1.0
#
DISCID=b30b630d
DTITLE=Nico Backton and Wizards of Blues - Back Door Blues
DYEAR=2006
DGENRE=Blues
TTITLE0=Before You Accuse Me
TTITLE1=Hot Times In Old Town
TTITLE2=Police Dog Blues
TTITLE3=Big Legged Woman
TTITLE4=Worried Life Blues
TTITLE5=Lost Lover Blues
TTITLE6=Allright Mama Blues
TTITLE7=Stormy Monday Blues
TTITLE8=Back Door Stranger
TTITLE9=Drifting Blues
TTITLE10=Whiskey And Gin Blues
TTITLE11=Phils Bar Blues
TTITLE12=Early In The Morning
EXTD=
EXTT0=
EXTT1=
EXTT2=
EXTT3=
EXTT4=
EXTT5=
EXTT6=
EXTT7=
EXTT8=
EXTT9=
EXTT10=
EXTT11=
EXTT12=
PLAYORDER=
